<svg xmlns="http://www.w3.org/2000/svg" width="20.022" height="23.826" viewBox="0 0 20.022 23.826">
  <path id="Icon_awesome-apple" data-name="Icon awesome-apple" d="M17.021,14.841a4.966,4.966,0,0,1,2.66-4.511,5.715,5.715,0,0,0-4.505-2.372c-1.888-.149-3.952,1.1-4.708,1.1-.8,0-2.628-1.048-4.064-1.048C3.436,8.059.281,10.378.281,15.1a13.258,13.258,0,0,0,.766,4.319c.681,1.952,3.138,6.739,5.7,6.66,1.34-.032,2.287-.952,4.032-.952,1.692,0,2.569.952,4.064.952,2.585-.037,4.809-4.388,5.458-6.346a5.273,5.273,0,0,1-3.282-4.888ZM14.01,6.106A5.01,5.01,0,0,0,15.287,2.25a5.64,5.64,0,0,0-3.612,1.856,5.088,5.088,0,0,0-1.362,3.825A4.467,4.467,0,0,0,14.01,6.106Z" transform="translate(-0.281 -2.25)"/>
</svg>
