<svg id="Group_1136" data-name="Group 1136" xmlns="http://www.w3.org/2000/svg" width="19" height="18.999" viewBox="0 0 19 18.999">
  <g id="Group_1104" data-name="Group 1104">
    <path id="Path_17132" data-name="Path 17132" d="M67.2,172.417a9.511,9.511,0,0,0,8.952-6.36H58.24A9.512,9.512,0,0,0,67.2,172.417Z" transform="translate(-57.694 -153.418)" fill="#f1a711"/>
    <path id="Path_17133" data-name="Path 17133" d="M67.2,162.519a9.517,9.517,0,0,0-8.955,6.36H76.147A9.516,9.516,0,0,0,67.2,162.519Z" transform="translate(-57.694 -162.519)" fill="#d80212"/>
    <path id="Path_17134" data-name="Path 17134" d="M76.544,164.288H58.632a9.563,9.563,0,0,0,0,6.36H76.544a9.563,9.563,0,0,0,0-6.36Z" transform="translate(-58.088 -157.968)" fill="#07339e"/>
  </g>
</svg>
