<svg id="edit-alt" xmlns="http://www.w3.org/2000/svg" width="14.634" height="14.634" viewBox="0 0 14.634 14.634">
  <path id="Path_2422" data-name="Path 2422" d="M7.724,13.043c-1.413.272-2.113,1.845-2.416,2.826a.61.61,0,0,0,.583.792H8.158a1.829,1.829,0,0,0,1.822-2,1.894,1.894,0,0,0-2.256-1.621Z" transform="translate(-2.06 -5.075)"/>
  <path id="Path_2423" data-name="Path 2423" d="M14.024,5.475a.61.61,0,0,0-.61.61V9.146H10.975a1.829,1.829,0,0,0-1.829,1.829v2.439h-6.1a1.829,1.829,0,0,1-1.829-1.829V3.049A1.829,1.829,0,0,1,3.049,1.22H9.782a.61.61,0,0,0,0-1.22H3.049A3.052,3.052,0,0,0,0,3.049v8.537a3.052,3.052,0,0,0,3.049,3.049H9.965a3.028,3.028,0,0,0,2.155-.893l1.621-1.621a3.028,3.028,0,0,0,.893-2.156V6.085A.61.61,0,0,0,14.024,5.475Zm-2.766,7.4a1.843,1.843,0,0,1-.893.488V10.976a.61.61,0,0,1,.61-.61h2.393a1.843,1.843,0,0,1-.488.893Z" transform="translate(0)"/>
  <path id="Path_2424" data-name="Path 2424" d="M13.174,9.03a.61.61,0,0,1-.431-1.041L17.531,3.2a.575.575,0,0,0,0-.814.549.549,0,0,0-.423-.168.569.569,0,0,0-.413.191L12.06,7.537a.61.61,0,1,1-.9-.818L15.789,1.6A1.8,1.8,0,0,1,17.074,1a1.82,1.82,0,0,1,1.319.526,1.8,1.8,0,0,1,0,2.538L13.6,8.852a.605.605,0,0,1-.431.178Z" transform="translate(-4.292 -0.39)"/>
</svg>
