<svg xmlns="http://www.w3.org/2000/svg" width="14.348" height="13.152" viewBox="0 0 14.348 13.152">
  <path id="envelope_2_" data-name="envelope (2)" d="M11.06,1H3.288A3.292,3.292,0,0,0,0,4.288v6.576a3.292,3.292,0,0,0,3.288,3.288H11.06a3.292,3.292,0,0,0,3.288-3.288V4.288A3.292,3.292,0,0,0,11.06,1Zm0,1.793a1.48,1.48,0,0,1,.982.377L8.156,7.057a1.419,1.419,0,0,1-1.96,0L2.311,3.171a1.48,1.48,0,0,1,.977-.377Zm0,9.565H3.288a1.5,1.5,0,0,1-1.495-1.495V5.195L4.925,8.327a3.179,3.179,0,0,0,4.5,0l3.133-3.132v5.669A1.5,1.5,0,0,1,11.06,12.359Z" transform="translate(0 -1)"/>
</svg>
