<svg xmlns="http://www.w3.org/2000/svg" width="19" height="19" viewBox="0 0 19 19">
  <g id="Group_1119" data-name="Group 1119" transform="translate(65.486 -20.46)">
    <g id="Group_1077" data-name="Group 1077" transform="translate(-65.486 20.46)">
      <path id="Path_17094" data-name="Path 17094" d="M-59.118,21V26.28l-4.329-2.167A9.581,9.581,0,0,1-59.118,21Z" transform="translate(65.486 -20.46)" fill="#04247b"/>
      <path id="Path_17095" data-name="Path 17095" d="M-48.437,24.113l-4.329,2.167V21A9.575,9.575,0,0,1-48.437,24.113Z" transform="translate(65.398 -20.46)" fill="#04247b"/>
      <path id="Path_17096" data-name="Path 17096" d="M-59.118,33.729V39A9.575,9.575,0,0,1-63.447,35.9Z" transform="translate(65.486 -20.548)" fill="#04247b"/>
      <path id="Path_17097" data-name="Path 17097" d="M-48.437,35.9A9.57,9.57,0,0,1-52.766,39V33.729Z" transform="translate(65.398 -20.548)" fill="#04247b"/>
      <path id="Path_17098" data-name="Path 17098" d="M-46.486,29.961a9.574,9.574,0,0,1-.19,1.9,9.353,9.353,0,0,1-.351,1.26h-2.659l2.191,1.1a9.455,9.455,0,0,1-1.02,1.6l-4.309-2.156v5.251a9.205,9.205,0,0,1-1.26.35,9.494,9.494,0,0,1-1.9.191,9.486,9.486,0,0,1-1.9-.191,9.233,9.233,0,0,1-1.262-.35V33.668l-4.309,2.156c-.132-.17-.261-.344-.381-.523l4.356-2.18H-62.32L-64.485,34.2a9.477,9.477,0,0,1-.81-2.343,9.5,9.5,0,0,1-.191-1.9,9.486,9.486,0,0,1,.191-1.9,9.234,9.234,0,0,1,.35-1.262H-62.3l-2.178-1.09A9.544,9.544,0,0,1-63.456,24.1l4.309,2.157V21a9.233,9.233,0,0,1,1.262-.35,9.486,9.486,0,0,1,1.9-.191,9.493,9.493,0,0,1,1.9.191,9.206,9.206,0,0,1,1.26.35v5.252l4.309-2.157q.2.252.377.516L-52.507,26.8h2.839l2.177-1.09a9.444,9.444,0,0,1,.815,2.352A9.559,9.559,0,0,1-46.486,29.961Z" transform="translate(65.486 -20.46)" fill="#fff"/>
      <path id="Path_17099" data-name="Path 17099" d="M-62.287,26.828h-2.655a9.307,9.307,0,0,1,.467-1.095Z" transform="translate(65.486 -20.486)" fill="#ce152a"/>
      <path id="Path_17100" data-name="Path 17100" d="M-46.942,33.18a9.274,9.274,0,0,1-.47,1.1l-2.2-1.1Z" transform="translate(65.398 -20.522)" fill="#ce152a"/>
      <path id="Path_17101" data-name="Path 17101" d="M-47.408,25.733-49.6,26.828h-2.852l4.389-2.2A9.426,9.426,0,0,1-47.408,25.733Z" transform="translate(65.398 -20.482)" fill="#ce152a"/>
      <path id="Path_17102" data-name="Path 17102" d="M-59.454,33.18l-4.376,2.19a9.4,9.4,0,0,1-.65-1.1l2.175-1.088Z" transform="translate(65.486 -20.526)" fill="#ce152a"/>
      <path id="Path_17103" data-name="Path 17103" d="M-46.486,29.961a9.574,9.574,0,0,1-.19,1.9h-7.409v7.408a9.494,9.494,0,0,1-1.9.191,9.486,9.486,0,0,1-1.9-.191V31.861h-7.41a9.5,9.5,0,0,1-.191-1.9,9.486,9.486,0,0,1,.191-1.9h7.41v-7.41a9.486,9.486,0,0,1,1.9-.191,9.493,9.493,0,0,1,1.9.191v7.41h7.409A9.559,9.559,0,0,1-46.486,29.961Z" transform="translate(65.486 -20.46)" fill="#ce152a"/>
    </g>
  </g>
</svg>
