<svg id="envelope_3_" data-name="envelope (3)" xmlns="http://www.w3.org/2000/svg" width="17.556" height="16.093" viewBox="0 0 17.556 16.093">
  <path id="Path_2420" data-name="Path 2420" d="M17.522,5.542,11.364,11.7a3.663,3.663,0,0,1-5.173,0L.034,5.542c-.01.116-.034.22-.034.335v8.778a3.662,3.662,0,0,0,3.657,3.657H13.9a3.662,3.662,0,0,0,3.657-3.657V5.877C17.556,5.762,17.532,5.658,17.522,5.542Z" transform="translate(0 -2.22)" fill="#c6b600"/>
  <path id="Path_2421" data-name="Path 2421" d="M10.53,9.446l6.681-6.682A3.647,3.647,0,0,0,14.1,1H3.857A3.647,3.647,0,0,0,.744,2.764L7.425,9.446a2.2,2.2,0,0,0,3.1,0Z" transform="translate(-0.2 -1)" fill="#c6b600"/>
</svg>
