<svg id="Group_1122" data-name="Group 1122" xmlns="http://www.w3.org/2000/svg" width="19" height="19" viewBox="0 0 19 19">
  <g id="Group_1086" data-name="Group 1086">
    <path id="Path_17108" data-name="Path 17108" d="M50.179,172.168a9.5,9.5,0,0,1-7.6,9.308,9.478,9.478,0,0,1-3.809,0,9.523,9.523,0,0,1-7.4-7.4,9.479,9.479,0,0,1,0-3.809,9.5,9.5,0,0,1,18.807,1.9Z" transform="translate(-31.179 -162.67)" fill="#fff"/>
    <path id="Path_17109" data-name="Path 17109" d="M50.179,172.168a9.556,9.556,0,0,1-.193,1.908h-7.4v7.4a9.478,9.478,0,0,1-3.809,0v-7.4h-7.4a9.479,9.479,0,0,1,0-3.809h7.4v-7.4a9.478,9.478,0,0,1,3.809,0v7.4h7.4A9.483,9.483,0,0,1,50.179,172.168Z" transform="translate(-31.179 -162.67)" fill="#ff0302"/>
    <g id="Group_1085" data-name="Group 1085" transform="translate(3.221 2.507)">
      <g id="Group_1081" data-name="Group 1081">
        <path id="Path_17110" data-name="Path 17110" d="M35.561,165.318c0-.16.025-.637.025-.637s-.758.1-1.334.146c.053-.573.149-1.33.149-1.33s-.477.025-.637.025-.637-.025-.637-.025.1.758.146,1.33c-.573-.05-1.33-.146-1.33-.146s.025.477.025.637-.025.637-.025.637.758-.1,1.33-.146c-.05.573-.146,1.33-.146,1.33s.477-.025.637-.025.637.025.637.025-.1-.758-.149-1.33c.576.05,1.334.146,1.334.146S35.561,165.478,35.561,165.318Z" transform="translate(-31.944 -163.497)" fill="#ff0302"/>
      </g>
      <g id="Group_1082" data-name="Group 1082" transform="translate(0 10.301)">
        <path id="Path_17111" data-name="Path 17111" d="M35.561,167.933c0-.16.025-.64.025-.64s-.758.1-1.334.149c.053-.576.149-1.33.149-1.33s-.477.025-.637.025-.637-.025-.637-.025.1.754.146,1.33c-.573-.05-1.33-.149-1.33-.149s.025.48.025.64-.025.637-.025.637.758-.1,1.33-.149c-.05.576-.146,1.33-.146,1.33s.477-.025.637-.025.637.025.637.025-.1-.754-.149-1.33c.576.05,1.334.149,1.334.149S35.561,168.09,35.561,167.933Z" transform="translate(-31.944 -166.112)" fill="#ff0302"/>
      </g>
      <g id="Group_1083" data-name="Group 1083" transform="translate(8.916 10.301)">
        <path id="Path_17112" data-name="Path 17112" d="M38.314,167.933c0-.16.021-.64.021-.64s-.754.1-1.33.149c.05-.576.149-1.33.149-1.33s-.48.025-.637.025-.64-.025-.64-.025.1.754.149,1.33c-.573-.05-1.33-.149-1.33-.149s.025.48.025.64-.025.637-.025.637.758-.1,1.33-.149c-.05.576-.149,1.33-.149,1.33s.48-.025.64-.025.637.025.637.025-.1-.754-.149-1.33c.576.05,1.33.149,1.33.149S38.314,168.09,38.314,167.933Z" transform="translate(-34.697 -166.112)" fill="#ff0302"/>
      </g>
      <g id="Group_1084" data-name="Group 1084" transform="translate(8.916)">
        <path id="Path_17113" data-name="Path 17113" d="M38.314,165.318c0-.16.021-.637.021-.637s-.754.1-1.33.146c.05-.573.149-1.33.149-1.33s-.48.025-.637.025-.64-.025-.64-.025.1.758.149,1.33c-.573-.05-1.33-.146-1.33-.146s.025.477.025.637-.025.637-.025.637.758-.1,1.33-.146c-.05.573-.149,1.33-.149,1.33s.48-.025.64-.025.637.025.637.025-.1-.758-.149-1.33c.576.05,1.33.146,1.33.146S38.314,165.478,38.314,165.318Z" transform="translate(-34.697 -163.497)" fill="#ff0302"/>
      </g>
    </g>
  </g>
</svg>
