<svg id="Group_7019" data-name="Group 7019" xmlns="http://www.w3.org/2000/svg" width="22.409" height="23.293" viewBox="0 0 22.409 23.293">
  <path id="Path_8071" data-name="Path 8071" d="M839.449,389.589c1.218-.605,2.338-1.182,3.479-1.71a1.017,1.017,0,0,1,.773.013c3.448,1.688,6.882,3.4,10.324,5.1a.936.936,0,0,1,.484.989q0,2.761,0,5.522c0,1.78-.011,3.56.007,5.34a1.117,1.117,0,0,1-.7,1.148q-5.028,2.462-10.035,4.968a1.086,1.086,0,0,1-1.072,0q-4.986-2.5-9.986-4.982a1,1,0,0,1-.62-1.008q.009-5.522,0-11.045a.993.993,0,0,1,.615-1.007c1.245-.6,2.47-1.234,3.717-1.826a.852.852,0,0,1,.661,0c3.352,1.711,6.692,3.446,10.041,5.163a.564.564,0,0,1,.365.589c-.017,1.658-.01,3.316-.007,4.975,0,.5.122.573.566.344.553-.285,1.094-.6,1.656-.86a.607.607,0,0,0,.381-.643c-.01-1.719-.014-3.438,0-5.157a.641.641,0,0,0-.423-.657q-4.868-2.479-9.724-4.981C839.812,389.79,839.671,389.709,839.449,389.589Z" transform="translate(-832.107 -387.808)" fill="#fff"/>
</svg>
