<svg xmlns="http://www.w3.org/2000/svg" width="27.425" height="20.571" viewBox="0 0 27.425 20.571">
  <g id="Group_7567" data-name="Group 7567" transform="translate(-24 -180.007)">
    <path id="Path_17171" data-name="Path 17171" d="M299.74,297.932c-.01.014-.027.027-.031.043a2.306,2.306,0,0,1-2.487,1.926h-2.034a8.131,8.131,0,0,0-3.774-6.8c.165-.156.314-.318.484-.455a3.136,3.136,0,0,1,1.914-.737c.954-.022,1.913-.048,2.863.023a3.38,3.38,0,0,1,3.009,2.768c.014.078.038.154.057.231Z" transform="translate(-248.316 -103.89)" fill="#c6b600"/>
    <path id="Path_17172" data-name="Path 17172" d="M24,294.885a7.581,7.581,0,0,1,.424-1.224,3.242,3.242,0,0,1,2.819-1.8,25.392,25.392,0,0,1,2.913.031,3.123,3.123,0,0,1,2.164,1.167,8.117,8.117,0,0,0-3.767,6.791c-.294,0-.577,0-.86,0-.535,0-1.073.023-1.6-.025a2.241,2.241,0,0,1-2.041-1.822.851.851,0,0,0-.047-.122Z" transform="translate(0 -103.843)" fill="#c6b600"/>
    <path id="Path_17173" data-name="Path 17173" d="M126.835,334.225c-1.116,0-2.231,0-3.347,0a3.441,3.441,0,0,1-3.509-3.506,9.415,9.415,0,0,1,.214-2.63,5.717,5.717,0,0,1,5.384-4.143c1.034-.01,2.075-.039,3.1.055a5.629,5.629,0,0,1,4.9,4.532,7.88,7.88,0,0,1,.006,3.06,3.392,3.392,0,0,1-3.294,2.633h-3.454Z" transform="translate(-89.123 -133.647)" fill="#c6b600"/>
    <path id="Path_17174" data-name="Path 17174" d="M152.08,184.564a4.565,4.565,0,1,1,4.565,4.589A4.561,4.561,0,0,1,152.08,184.564Z" transform="translate(-118.932 -0.001)" fill="#c6b600"/>
    <path id="Path_17175" data-name="Path 17175" d="M46.807,183.439a3.427,3.427,0,1,1-3.412-3.432A3.424,3.424,0,0,1,46.807,183.439Z" transform="translate(-14.814)" fill="#c6b600"/>
    <path id="Path_17176" data-name="Path 17176" d="M296.078,183.423a3.427,3.427,0,1,1,3.4,3.44A3.42,3.42,0,0,1,296.078,183.423Z" transform="translate(-252.646 0)" fill="#c6b600"/>
  </g>
</svg>
