<svg xmlns="http://www.w3.org/2000/svg" width="24.457" height="24.294" viewBox="0 0 24.457 24.294">
  <g id="Group_7143" data-name="Group 7143" transform="translate(0.5 0.502)">
    <path id="Path_8070" data-name="Path 8070" d="M40.963,392.518c0-2.1.012-4.2-.006-6.292a1.937,1.937,0,0,1,1.035-1.819q4.836-2.885,9.657-5.8a1.867,1.867,0,0,1,2.087.006q4.822,2.908,9.656,5.8a1.946,1.946,0,0,1,1.022,1.827c-.013,4.2,0,8.39-.007,12.585a2.6,2.6,0,0,1-2.749,2.758q-2.034,0-4.069,0a1.737,1.737,0,0,1-1.862-1.861c0-1.465,0-2.929,0-4.394,0-.815-.3-1.123-1.1-1.125q-1.953,0-3.906,0c-.77,0-1.078.311-1.08,1.085,0,1.465,0,2.929,0,4.394a1.743,1.743,0,0,1-1.877,1.9q-2.061.006-4.123,0a2.6,2.6,0,0,1-2.679-2.663C40.958,396.786,40.963,394.652,40.963,392.518Z" transform="translate(-40.957 -378.293)" fill="#fff" stroke="rgba(0,0,0,0)" stroke-miterlimit="10" stroke-width="1"/>
  </g>
</svg>
