<svg id="info" xmlns="http://www.w3.org/2000/svg" width="13.728" height="13.728" viewBox="0 0 13.728 13.728">
  <path id="Path_2410" data-name="Path 2410" d="M6.864,0a6.864,6.864,0,1,0,6.864,6.864A6.864,6.864,0,0,0,6.864,0Zm0,12.012a5.148,5.148,0,1,1,5.148-5.148A5.148,5.148,0,0,1,6.864,12.012Z" fill="#fff"/>
  <path id="Path_2411" data-name="Path 2411" d="M10.728,9.545h-.172a.9.9,0,0,0-.918.8.858.858,0,0,0,.778.912v2.66a.858.858,0,0,0,1.716,0V10.949a1.4,1.4,0,0,0-1.4-1.4Z" transform="translate(-4.125 -4.085)" fill="#fff"/>
  <path id="Path_2412" data-name="Path 2412" d="M11.1,7A.981.981,0,1,0,10.4,6.71.982.982,0,0,0,11.1,7Z" transform="translate(-4.329 -2.155)" fill="#fff"/>
</svg>
