<svg xmlns="http://www.w3.org/2000/svg" width="16.741" height="16.744" viewBox="0 0 16.741 16.744">
  <g id="Group_854" data-name="Group 854" transform="translate(0.049 0.05)">
    <path id="Path_2406" data-name="Path 2406" d="M184.395,180.1a5.936,5.936,0,0,1,7.036,7.473h1.251a1.353,1.353,0,0,1,1.4,1.2,2.2,2.2,0,0,1,.023.321q0,1.746,0,3.492a1.514,1.514,0,0,1-1.577,1.573q-1.907,0-3.814,0a1.506,1.506,0,0,1-1.521-1.258,2.978,2.978,0,0,1-.019-.475c0-.278,0-.557,0-.851-.142.026-.271.051-.4.073a5.883,5.883,0,0,1-6.807-6.711.158.158,0,0,0-.067-.174c-.211-.162-.423-.324-.623-.5a.618.618,0,0,0-.44-.157,1.282,1.282,0,0,1-1.121-.6,1.5,1.5,0,0,1-.247-.842c0-1.22-.008-2.44,0-3.66a1.491,1.491,0,0,1,1.494-1.482q1.978-.016,3.956,0a1.493,1.493,0,0,1,1.479,1.508C184.4,179.389,184.395,179.741,184.395,180.1Zm4.853,7.158c0,.237,0,.438,0,.639a.338.338,0,0,1-.369.37c-.09,0-.18,0-.271,0a.668.668,0,0,0-.735.662,1.9,1.9,0,0,0-.008.206q0,1.733,0,3.465a.811.811,0,0,0,.861.865q1.907,0,3.813,0a.817.817,0,0,0,.868-.874q0-1.72,0-3.44a1.877,1.877,0,0,0-.016-.244.658.658,0,0,0-.727-.64c-.636,0-1.271,0-1.907,0a.644.644,0,0,1-.446-.158C189.971,187.835,189.623,187.563,189.248,187.262Zm-8.665-2.835c0-.222,0-.406,0-.59,0-.291.126-.417.414-.417.662,0,1.323,0,1.985,0a.64.64,0,0,0,.69-.562,1.357,1.357,0,0,0,.027-.281q0-1.753,0-3.505a.8.8,0,0,0-.826-.847q-1.939-.007-3.879,0a.808.808,0,0,0-.837.853q0,1.74,0,3.479a1.514,1.514,0,0,0,.052.394.585.585,0,0,0,.517.456c.135.018.276,0,.411.018a.784.784,0,0,1,.316.111c.187.128.358.28.536.422Zm9.509-1.482-.721.368c.01.04.02.076.028.113.089.406.181.812.264,1.22a.636.636,0,0,1,0,.267.33.33,0,0,1-.354.239.34.34,0,0,1-.317-.3c-.049-.27-.091-.542-.146-.811-.033-.161-.085-.319-.13-.484a9.686,9.686,0,0,1-2.584.43v.157q0,.593,0,1.186c0,.172,0,.172.176.172l1.546,0a.326.326,0,0,1,.326.206c.109.255-.074.487-.375.487-.514,0-1.029,0-1.543,0-.115,0-.135.044-.134.143,0,.442,0,.885.005,1.327,0,.037.006.074.01.113.026,0,.042.008.059.01.448.047.9.1,1.345.139a.3.3,0,0,0,.137-.045c.189-.089.372-.189.565-.267a1.391,1.391,0,0,1,.309-.049c0-.342,0-.677,0-1.011a.332.332,0,0,1,.206-.328.325.325,0,0,1,.36.051c.435.35.873.7,1.31,1.043.085.067.171.133.268.208a4.9,4.9,0,0,0,.261-1.333h-.97a.344.344,0,0,1-.392-.359c0-.2.149-.335.387-.336.279,0,.558,0,.838,0,.045,0,.09-.006.142-.009A5.178,5.178,0,0,0,190.091,182.945Zm-4.661,4.837V186.2h-2.9a6.607,6.607,0,0,0,.359,2A9.72,9.72,0,0,1,185.431,187.782Zm-3.22.659a.141.141,0,0,0,0-.033,8.492,8.492,0,0,1-.386-2.174.19.19,0,0,0-.066-.113.35.35,0,0,1-.005-.55.258.258,0,0,0,.074-.148c.026-.226.037-.453.063-.679.024-.206.061-.411.092-.618h-.705c0,.346,0,.68,0,1.014a.334.334,0,0,1-.183.317.344.344,0,0,1-.377-.029l-.11-.074a5.2,5.2,0,0,0,.9,3.442Zm3.215-4.457c-.062,0-.112-.008-.163-.013-.367-.036-.735-.063-1.1-.115a.652.652,0,0,0-.492.084,1.551,1.551,0,0,1-.842.171c-.1-.006-.144.032-.156.13-.045.37-.1.74-.142,1.11a1.128,1.128,0,0,0,0,.138h2.9Zm3.036-1.083a4.622,4.622,0,0,0-.871-1.378,2.7,2.7,0,0,0-1.33-.815c-.039-.009-.079-.013-.119-.02v2.6A8.779,8.779,0,0,0,188.462,182.9Zm-3.035,5.574a8.773,8.773,0,0,0-2.306.381,4.5,4.5,0,0,0,1.044,1.5,2.533,2.533,0,0,0,1.137.626c.039.009.079.012.125.019Zm.71,2.578c.338-.064.658-.123.975-.19.025-.005.053-.07.054-.109.022-.723-.041-1.447.048-2.19l-1.077-.1Zm-.712-10.36a2.151,2.151,0,0,0-.912.362.245.245,0,0,0-.122.229,10.92,10.92,0,0,1-.068,1.91l1.1.1Zm3.724,1.952.5-.252a4.335,4.335,0,0,0-1.238-1.015Zm-7.2,6.7a5.174,5.174,0,0,0,1.237,1l-.74-1.242Z" transform="translate(-177.46 -177.521)" fill="#fff" stroke="#fff" stroke-width="0.1"/>
    <path id="Path_2407" data-name="Path 2407" d="M632.97,636.641h.68c.065,0,.129,0,.193,0a.345.345,0,0,1,0,.691,4.418,4.418,0,0,0-.53.03c.094.072.187.148.284.217.077.055.161.1.239.151a.344.344,0,0,1,.12.471.328.328,0,0,1-.467.123c-.27-.181-.522-.386-.782-.582a.261.261,0,0,1-.04-.037c-.3.205-.585.409-.88.6a.484.484,0,0,1-.279.06.317.317,0,0,1-.27-.273.341.341,0,0,1,.165-.362c.145-.092.292-.181.436-.274a.322.322,0,0,0,.111-.119c-.178,0-.356,0-.533,0a.347.347,0,0,1-.339-.23.325.325,0,0,1,.108-.381.511.511,0,0,1,.25-.08c.227-.011.455,0,.682,0h.153v-.178c0-.395,0-.79,0-1.185a.347.347,0,1,1,.694,0c0,.4,0,.807,0,1.211Z" transform="translate(-619.368 -623.12)" fill="#fff" stroke="#fff" stroke-width="0.1"/>
    <path id="Path_2408" data-name="Path 2408" d="M621.534,638.374a1.161,1.161,0,0,1,.23.124,4.572,4.572,0,0,1,.346.343.349.349,0,0,1,0,.487.34.34,0,0,1-.485.01c-.129-.119-.253-.244-.371-.373a.321.321,0,0,1-.053-.371A.386.386,0,0,1,621.534,638.374Z" transform="translate(-609.731 -626.495)" fill="#fff" stroke="#fff" stroke-width="0.1"/>
    <path id="Path_2409" data-name="Path 2409" d="M259.806,233.97h-1.035c0,.228,0,.45,0,.671a.34.34,0,0,1-.29.355.334.334,0,0,1-.4-.317c-.006-.678-.022-1.357.006-2.034a1.194,1.194,0,0,1,1.256-1.109,1.21,1.21,0,0,1,1.16,1.186c.007.635,0,1.271,0,1.906a.349.349,0,0,1-.34.375.353.353,0,0,1-.354-.377C259.8,234.413,259.806,234.2,259.806,233.97Zm-1.032-.713H259.8c0-.2.012-.389,0-.576a.515.515,0,0,0-1.023,0C258.763,232.871,258.774,233.06,258.774,233.257Z" transform="translate(-255.992 -230.143)" fill="#fff" stroke="#fff" stroke-width="0.1"/>
  </g>
</svg>
