<svg id="sign-out-alt" xmlns="http://www.w3.org/2000/svg" width="14.379" height="14.634" viewBox="0 0 14.379 14.634">
  <path id="Path_2425" data-name="Path 2425" d="M7.012,9.756a.915.915,0,0,0-.915.915v.488A1.646,1.646,0,0,1,4.451,12.8H3.476a1.646,1.646,0,0,1-1.646-1.646V3.476A1.646,1.646,0,0,1,3.476,1.829h.976A1.646,1.646,0,0,1,6.1,3.476v.488a.915.915,0,1,0,1.829,0V3.476A3.479,3.479,0,0,0,4.451,0H3.476A3.479,3.479,0,0,0,0,3.476v7.683a3.479,3.479,0,0,0,3.476,3.476h.976a3.479,3.479,0,0,0,3.476-3.476v-.488A.915.915,0,0,0,7.012,9.756Z" transform="translate(0 0)"/>
  <path id="Path_2426" data-name="Path 2426" d="M15.9,7.564l-2.8-2.8a.915.915,0,0,0-1.293,1.294l2.08,2.08-7.479.017a.915.915,0,0,0,0,1.829h0l7.511-.017-2.114,2.114A.915.915,0,0,0,13.1,13.379l2.8-2.8A2.137,2.137,0,0,0,15.9,7.564Z" transform="translate(-2.146 -1.756)"/>
</svg>
