<svg xmlns="http://www.w3.org/2000/svg" width="27.751" height="17.152" viewBox="0 0 27.751 17.152">
  <g id="mastercard-2" transform="translate(0 0.001)">
    <path id="Path_358" data-name="Path 358" d="M1929.573,977.553v-.333h-.087l-.1.229-.1-.229h-.087v.333h.062V977.3l.094.216h.064l.094-.217v.251h.061Zm-.55,0v-.276h.111v-.056h-.284v.056h.111v.276h.061Z" transform="translate(-1902.09 -963.663)" fill="#f79410"/>
    <path id="Path_359" data-name="Path 359" d="M737.214,145.635h-7.5V132.15h7.5Z" transform="translate(-719.586 -130.317)" fill="#ff5f00"/>
    <path id="Path_360" data-name="Path 360" d="M10.6,8.576a8.562,8.562,0,0,1,3.275-6.743,8.576,8.576,0,1,0,0,13.485A8.562,8.562,0,0,1,10.6,8.576" transform="translate(0 0)" fill="#eb001b"/>
    <path id="Path_361" data-name="Path 361" d="M1013.985,8.576a8.576,8.576,0,0,1-13.875,6.743,8.577,8.577,0,0,0,0-13.485,8.576,8.576,0,0,1,13.875,6.743" transform="translate(-986.235 0)" fill="#f79e1b"/>
  </g>
</svg>
