<svg xmlns="http://www.w3.org/2000/svg" width="20.02" height="23.383" viewBox="0 0 20.02 23.383">
  <g id="Group_7523" data-name="Group 7523" transform="translate(-398.549 -374.889)">
    <path id="Path_17166" data-name="Path 17166" d="M402.135,455.192c0,.858,0,1.68,0,2.5,0,.475.035.509.515.509.381,0,.762,0,1.142,0,.327,0,.408-.082.409-.408,0-.761,0-1.523,0-2.284v-.3h7.776v.289c0,.77,0,1.541,0,2.311,0,.31.084.392.4.394.416,0,.832,0,1.249,0,.352,0,.422-.071.423-.416,0-.85,0-1.7,0-2.595h.448c.5,0,.992.011,1.487,0,.235-.007.309.065.293.3-.085,1.254-.157,2.509-.234,3.763q-.147,2.4-.3,4.8-.205,3.353-.409,6.706c-.037.6-.09,1.2-.1,1.8-.006.281-.116.326-.367.325-2.772-.008-5.543-.005-8.315-.005h-7.677c-.345,0-.337,0-.316-.339q.174-2.8.341-5.593.2-3.34.408-6.679.143-2.346.282-4.692c.022-.384.016-.384.411-.384Z" transform="translate(0 -74.612)" fill="#c6b600"/>
    <path id="Path_17167" data-name="Path 17167" d="M466.505,383.042c0-.887.028-1.754-.011-2.618a5.8,5.8,0,0,0-.245-1.561,4.414,4.414,0,0,0-8.559.962,8.641,8.641,0,0,0-.023.928c0,.752,0,1.5,0,2.281h-.988c-.006-.071-.016-.139-.016-.207,0-.868-.008-1.735,0-2.6a5.42,5.42,0,0,1,10.77-.778,14.35,14.35,0,0,1,.073,1.854c.011.574,0,1.149,0,1.741Z" transform="translate(-53.995 0)" fill="#c6b600"/>
    <path id="Path_17168" data-name="Path 17168" d="M642.779,491.771q.129.89.259,1.779.464,3.231.926,6.462c.228,1.594.46,3.187.677,4.782a.359.359,0,0,1-.144.286c-.786.477-1.582.94-2.377,1.4a.932.932,0,0,1-.219.063.817.817,0,0,1-.049-.219q.208-3.5.423-7,.17-2.81.338-5.619.058-.967.119-1.934Z" transform="translate(-226.073 -108.605)" fill="#c6b600"/>
  </g>
</svg>
