<svg id="Group_6269" data-name="Group 6269" xmlns="http://www.w3.org/2000/svg" width="21.453" height="26.532" viewBox="0 0 21.453 26.532">
  <g id="Icon_ionic-ios-notifications-outline" data-name="Icon ionic-ios-notifications-outline" transform="translate(0 0)">
    <path id="Path_8051" data-name="Path 8051" d="M20.047,28.336a.859.859,0,0,0-.842.676,1.662,1.662,0,0,1-.332.723,1.253,1.253,0,0,1-1.068.391,1.274,1.274,0,0,1-1.068-.391,1.662,1.662,0,0,1-.332-.723.859.859,0,0,0-.842-.676h0a.865.865,0,0,0-.842,1.054,2.963,2.963,0,0,0,3.084,2.46,2.957,2.957,0,0,0,3.084-2.46.868.868,0,0,0-.842-1.054Z" transform="translate(-7.226 -5.318)" fill="#fff"/>
    <path id="Path_8052" data-name="Path 8052" d="M27.707,23.579c-1.021-1.346-3.031-2.135-3.031-8.163,0-6.187-2.732-8.674-5.279-9.271-.239-.06-.411-.139-.411-.391V5.562A1.626,1.626,0,0,0,17.395,3.93h-.04a1.626,1.626,0,0,0-1.592,1.631v.192c0,.245-.172.332-.411.391-2.553.6-5.279,3.084-5.279,9.271,0,6.028-2.009,6.81-3.031,8.163A1.316,1.316,0,0,0,8.1,25.688H26.672A1.317,1.317,0,0,0,27.707,23.579Zm-2.586.385H9.656a.291.291,0,0,1-.219-.484,8.034,8.034,0,0,0,1.393-2.215,15.028,15.028,0,0,0,.948-5.849A10.17,10.17,0,0,1,13.164,9.66,4.255,4.255,0,0,1,15.73,7.83a2.324,2.324,0,0,0,1.233-.7.524.524,0,0,1,.789-.013A2.4,2.4,0,0,0,19,7.83a4.255,4.255,0,0,1,2.566,1.83,10.17,10.17,0,0,1,1.386,5.756,15.028,15.028,0,0,0,.948,5.849,8.126,8.126,0,0,0,1.426,2.248A.274.274,0,0,1,25.121,23.964Z" transform="translate(-6.775 -3.93)" fill="#fff"/>
  </g>
  <g id="Ellipse_440" data-name="Ellipse 440" transform="translate(12.453 3)" fill="#f6454c" stroke="#fff" stroke-width="1">
    <circle cx="4.5" cy="4.5" r="4.5" stroke="none"/>
    <circle cx="4.5" cy="4.5" r="4" fill="none"/>
  </g>
</svg>
