<svg xmlns="http://www.w3.org/2000/svg" width="21" height="24.919" viewBox="0 0 21 24.919">
  <g id="Group_7186" data-name="Group 7186" transform="translate(-0.002)">
    <path id="Path_362" data-name="Path 362" d="M31.649,32.33h7.029c3.774,0,5.194,1.91,4.975,4.717-.363,4.634-3.164,7.2-6.88,7.2H34.9c-.51,0-.853.337-.991,1.252l-.8,5.316c-.053.345-.234.544-.506.572H28.187c-.415,0-.562-.318-.454-1.005l2.692-17.042A1.071,1.071,0,0,1,31.649,32.33Z" transform="translate(-22.672 -26.464)" fill="#009ee3" fill-rule="evenodd"/>
    <path id="Path_363" data-name="Path 363" d="M4.581,0h7.036c1.981,0,4.333.064,5.9,1.451A4.769,4.769,0,0,1,19,5.443c-.432,5.372-3.645,8.382-7.956,8.382H7.571c-.591,0-.982.392-1.148,1.451l-.969,6.169c-.063.4-.236.635-.544.664H.567c-.481,0-.651-.363-.526-1.165L3.162,1.172A1.249,1.249,0,0,1,4.581,0Z" transform="translate(0)" fill="#113984" fill-rule="evenodd"/>
    <path id="Path_364" data-name="Path 364" d="M35.95,41.107l1.228-7.778A1.075,1.075,0,0,1,38.4,32.32h7.029a6.856,6.856,0,0,1,2.841.517c-.706,4.782-3.8,7.439-7.849,7.439H36.961A1.024,1.024,0,0,0,35.95,41.107Z" transform="translate(-29.426 -26.456)" fill="#172c70" fill-rule="evenodd"/>
  </g>
</svg>
