<svg xmlns="http://www.w3.org/2000/svg" width="10.987" height="10.987" viewBox="0 0 10.987 10.987">
  <path id="Icon_material-person-outline" data-name="Icon material-person-outline" d="M11.493,7.3a1.442,1.442,0,1,1-1.442,1.442A1.442,1.442,0,0,1,11.493,7.3m0,6.18c2.039,0,4.189,1,4.189,1.442v.755H7.3v-.755c0-.439,2.149-1.442,4.189-1.442m0-7.485A2.747,2.747,0,1,0,14.24,8.747,2.746,2.746,0,0,0,11.493,6Zm0,6.18C9.66,12.18,6,13.1,6,14.927v2.06H16.987v-2.06C16.987,13.1,13.327,12.18,11.493,12.18Z" transform="translate(-6 -6)" fill="#fff"/>
</svg>
