<svg xmlns="http://www.w3.org/2000/svg" width="17.53" height="17.56" viewBox="0 0 17.53 17.56">
  <path id="phone-call_1_" data-name="phone-call (1)" d="M16.833,8.046a.731.731,0,0,1-.731-.731A5.858,5.858,0,0,0,10.25,1.462.731.731,0,0,1,10.25,0a7.323,7.323,0,0,1,7.315,7.315A.731.731,0,0,1,16.833,8.046Zm-2.194-.731A4.389,4.389,0,0,0,10.25,2.925a.731.731,0,0,0,0,1.463,2.926,2.926,0,0,1,2.926,2.926.731.731,0,1,0,1.463,0Zm1.6,8.9.666-.767a2.268,2.268,0,0,0,0-3.2c-.023-.023-1.783-1.377-1.783-1.377a2.268,2.268,0,0,0-3.131,0l-1.394,1.175A9.351,9.351,0,0,1,5.523,6.966l1.17-1.39A2.268,2.268,0,0,0,6.7,2.444S5.343.686,5.32.664A2.254,2.254,0,0,0,2.156.63l-.841.731C-3.655,7.127,7.046,17.746,13,17.555a4.5,4.5,0,0,0,3.234-1.343Z" transform="translate(-0.035 0.002)" fill="#c6b600"/>
</svg>
