<svg xmlns="http://www.w3.org/2000/svg" width="42.753" height="42.753" viewBox="0 0 42.753 42.753">
  <path id="Path_524" data-name="Path 524" d="M22.693,19.039a2.37,2.37,0,0,1-4.507-1.466,7.357,7.357,0,0,1,7.074-4.89,7.172,7.172,0,0,1,7.4,6.9,6.907,6.907,0,0,1-4.119,6.186,1.462,1.462,0,0,0-.9,1.424v2.214a2.375,2.375,0,0,1-4.751,0V27.2a6.275,6.275,0,0,1,3.669-5.731,1.943,1.943,0,0,0,.671-3.323,3.08,3.08,0,0,0-3.644-.223,2.2,2.2,0,0,0-.887,1.114ZM25.361,3.985A21.376,21.376,0,1,0,46.737,25.361,21.376,21.376,0,0,0,25.361,3.985ZM8.735,25.361A16.625,16.625,0,1,0,25.361,8.736,16.625,16.625,0,0,0,8.735,25.361ZM25.361,38.038a2.379,2.379,0,1,1,2.375-2.374,2.374,2.374,0,0,1-2.375,2.374Z" transform="translate(-3.984 -3.985)" fill="#c6b600" fill-rule="evenodd"/>
</svg>
