<svg xmlns="http://www.w3.org/2000/svg" width="19" height="19" viewBox="0 0 19 19">
  <g id="Group_1079" data-name="Group 1079" transform="translate(-16.605 -163.614)">
    <path id="Path_17104" data-name="Path 17104" d="M25.713,163.614a9.522,9.522,0,0,0-8.957,6.366h17.91A9.52,9.52,0,0,0,25.713,163.614Z" transform="translate(0.392 0)" fill="#fff"/>
    <path id="Path_17105" data-name="Path 17105" d="M35.605,168.564a9.538,9.538,0,0,0-.544-3.181H17.146a9.626,9.626,0,0,0,0,6.363H35.061A9.569,9.569,0,0,0,35.605,168.564Z" transform="translate(0 4.551)" fill="#05539d"/>
    <path id="Path_17106" data-name="Path 17106" d="M16.756,167.151a9.483,9.483,0,0,0,17.91,0Z" transform="translate(0.392 9.1)" fill="#df3a3d"/>
  </g>
</svg>
