<svg xmlns="http://www.w3.org/2000/svg" width="23.287" height="23.293" viewBox="0 0 23.287 23.293">
  <path id="Icon_ionic-ios-settings" data-name="Icon ionic-ios-settings" d="M25.864,16.143a3,3,0,0,1,1.922-2.8A11.878,11.878,0,0,0,26.35,9.885a3.037,3.037,0,0,1-1.219.261A2.99,2.99,0,0,1,22.4,5.937,11.842,11.842,0,0,0,18.939,4.5a2.994,2.994,0,0,1-5.591,0A11.878,11.878,0,0,0,9.885,5.937,2.99,2.99,0,0,1,7.15,10.146a2.938,2.938,0,0,1-1.219-.261A12.14,12.14,0,0,0,4.5,13.354a3,3,0,0,1,.006,5.591,11.878,11.878,0,0,0,1.437,3.463,2.991,2.991,0,0,1,3.948,3.948,11.947,11.947,0,0,0,3.463,1.437,2.989,2.989,0,0,1,5.579,0A11.878,11.878,0,0,0,22.4,26.356a2.994,2.994,0,0,1,3.948-3.948,11.947,11.947,0,0,0,1.437-3.463A3.011,3.011,0,0,1,25.864,16.143ZM16.2,20.989a4.851,4.851,0,1,1,4.851-4.851A4.85,4.85,0,0,1,16.2,20.989Z" transform="translate(-4.5 -4.5)" fill="#fff"/>
</svg>
