<svg xmlns="http://www.w3.org/2000/svg" width="8.252" height="13" viewBox="0 0 8.252 13">
  <g id="Group_7455" data-name="Group 7455" transform="translate(-182.818 -295.773)">
    <path id="Path_17143" data-name="Path 17143" d="M186.85,308.773a.66.66,0,0,1-.495-.427,1.175,1.175,0,0,1-.041-.3c-.027-.706-.04-1.412-.081-2.116a6.815,6.815,0,0,0-.144-.848.474.474,0,0,0-.252-.327,1.681,1.681,0,0,1-.87-1.2.2.2,0,0,0-.1-.114,4.112,4.112,0,0,1-1.5-5.574,4.117,4.117,0,0,1,7.694,2.245,3.991,3.991,0,0,1-1.963,3.283.416.416,0,0,0-.212.293,1.538,1.538,0,0,1-.764,1.016.769.769,0,0,0-.383.6,12.2,12.2,0,0,0-.152,2.047c0,.211,0,.423,0,.635a.678.678,0,0,1-.535.791Zm.105-12.566a3.682,3.682,0,1,0,3.685,3.686A3.7,3.7,0,0,0,186.955,296.206Zm-1.494,7.517a1.445,1.445,0,0,0,.663.7.609.609,0,0,1,.321.375,5.387,5.387,0,0,1,.174.7,14.445,14.445,0,0,1,.126,2.188,3.418,3.418,0,0,0,.007.431.292.292,0,0,0,.113.191c.133.083.287-.026.289-.2,0-.343-.016-.686,0-1.027.037-.611.083-1.222.154-1.83a1.067,1.067,0,0,1,.6-.931,1.086,1.086,0,0,0,.5-.589A4.125,4.125,0,0,1,185.461,303.723Z" transform="translate(0)" fill="#c6b600"/>
    <path id="Path_17144" data-name="Path 17144" d="M306.242,487.039a.215.215,0,1,1,.007-.431.211.211,0,0,1,.207.212A.214.214,0,0,1,306.242,487.039Z" transform="translate(-119.292 -184.767)" fill="#c6b600"/>
    <path id="Path_17145" data-name="Path 17145" d="M224.545,466.4a.215.215,0,0,1-.429.009.22.22,0,0,1,.2-.218A.217.217,0,0,1,224.545,466.4Z" transform="translate(-39.984 -164.994)" fill="#c6b600"/>
    <path id="Path_17146" data-name="Path 17146" d="M210.908,432.449a.221.221,0,0,1-.219.216.223.223,0,0,1-.21-.213.212.212,0,0,1,.207-.212A.209.209,0,0,1,210.908,432.449Z" transform="translate(-26.781 -132.128)" fill="#c6b600"/>
    <path id="Path_17147" data-name="Path 17147" d="M401.837,432.2a.216.216,0,0,1,.215.219.226.226,0,0,1-.217.208.221.221,0,0,1-.213-.223A.209.209,0,0,1,401.837,432.2Z" transform="translate(-211.847 -132.087)" fill="#c6b600"/>
    <path id="Path_17148" data-name="Path 17148" d="M388.189,466.152a.225.225,0,0,1,.217.221.214.214,0,0,1-.215.206.209.209,0,0,1-.215-.2A.218.218,0,0,1,388.189,466.152Z" transform="translate(-198.635 -164.961)" fill="#c6b600"/>
    <path id="Path_17149" data-name="Path 17149" d="M361.14,480a.217.217,0,0,1-.215.207.208.208,0,0,1-.214-.205.214.214,0,0,1,.212-.222A.223.223,0,0,1,361.14,480Z" transform="translate(-172.236 -178.151)" fill="#c6b600"/>
    <path id="Path_17150" data-name="Path 17150" d="M292.858,514.043a.209.209,0,0,1-.22.209.214.214,0,0,1-.2-.214.217.217,0,0,1,.216-.216A.212.212,0,0,1,292.858,514.043Z" transform="translate(-106.129 -211.115)" fill="#c6b600"/>
    <path id="Path_17151" data-name="Path 17151" d="M320.014,514.266a.214.214,0,0,1,.022-.428.216.216,0,0,1,.2.232A.213.213,0,0,1,320.014,514.266Z" transform="translate(-132.64 -211.131)" fill="#c6b600"/>
    <path id="Path_17152" data-name="Path 17152" d="M238.2,446.067a.218.218,0,0,1-.212.209.223.223,0,0,1-.216-.22.214.214,0,0,1,.227-.206A.21.21,0,0,1,238.2,446.067Z" transform="translate(-53.207 -145.305)" fill="#c6b600"/>
    <path id="Path_17153" data-name="Path 17153" d="M374.578,445.839a.215.215,0,0,1,.209.212.223.223,0,0,1-.221.214.217.217,0,0,1-.207-.214A.21.21,0,0,1,374.578,445.839Z" transform="translate(-185.45 -145.294)" fill="#c6b600"/>
    <path id="Path_17154" data-name="Path 17154" d="M333.847,486.846a.219.219,0,0,1-.219.215.214.214,0,0,1-.209-.223.208.208,0,0,1,.21-.207A.216.216,0,0,1,333.847,486.846Z" transform="translate(-145.812 -184.79)" fill="#c6b600"/>
    <path id="Path_17155" data-name="Path 17155" d="M265.474,507.3a.208.208,0,0,1-.2.216.214.214,0,1,1-.018-.427A.209.209,0,0,1,265.474,507.3Z" transform="translate(-79.612 -204.593)" fill="#c6b600"/>
    <path id="Path_17156" data-name="Path 17156" d="M347.523,452.727a.215.215,0,0,1-.2.217.208.208,0,0,1-.223-.208.214.214,0,0,1,.2-.219A.224.224,0,0,1,347.523,452.727Z" transform="translate(-159.055 -151.76)" fill="#c6b600"/>
    <path id="Path_17157" data-name="Path 17157" d="M292.606,459.9a.22.22,0,0,1-.211-.225.212.212,0,0,1,.218-.2.207.207,0,0,1,.209.209A.215.215,0,0,1,292.606,459.9Z" transform="translate(-106.093 -158.499)" fill="#c6b600"/>
    <path id="Path_17158" data-name="Path 17158" d="M320.185,459.678a.22.22,0,0,1-.211.225.215.215,0,0,1-.217-.217.207.207,0,0,1,.209-.209A.213.213,0,0,1,320.185,459.678Z" transform="translate(-132.585 -158.499)" fill="#c6b600"/>
    <path id="Path_17159" data-name="Path 17159" d="M251.813,479.977a.208.208,0,0,1-.209.209.215.215,0,0,1-.22-.2.224.224,0,0,1,.212-.226A.215.215,0,0,1,251.813,479.977Z" transform="translate(-66.385 -178.136)" fill="#c6b600"/>
    <path id="Path_17160" data-name="Path 17160" d="M279.171,486.876a.215.215,0,0,1-.207.213.221.221,0,0,1-.22-.216.217.217,0,0,1,.223-.212A.212.212,0,0,1,279.171,486.876Z" transform="translate(-92.875 -184.819)" fill="#c6b600"/>
    <path id="Path_17161" data-name="Path 17161" d="M347.506,507.317a.215.215,0,0,1-.219.2.213.213,0,0,1,.005-.426A.218.218,0,0,1,347.506,507.317Z" transform="translate(-159.036 -204.602)" fill="#c6b600"/>
    <path id="Path_17162" data-name="Path 17162" d="M265.312,453.012a.214.214,0,0,1-.211-.209.22.22,0,0,1,.218-.216.213.213,0,0,1,.209.21A.208.208,0,0,1,265.312,453.012Z" transform="translate(-79.667 -151.828)" fill="#c6b600"/>
  </g>
</svg>
