<svg xmlns="http://www.w3.org/2000/svg" width="6.622" height="10.432" viewBox="0 0 6.622 10.432">
  <g id="Group_7455" data-name="Group 7455" transform="translate(-182.818 -295.773)">
    <path id="Path_17143" data-name="Path 17143" d="M186.053,306.2a.53.53,0,0,1-.4-.342.943.943,0,0,1-.033-.24c-.022-.566-.032-1.133-.065-1.7a5.47,5.47,0,0,0-.115-.681.38.38,0,0,0-.2-.262,1.349,1.349,0,0,1-.7-.964.163.163,0,0,0-.078-.092,3.3,3.3,0,0,1-1.205-4.473,3.3,3.3,0,0,1,6.174,1.8,3.2,3.2,0,0,1-1.575,2.634.334.334,0,0,0-.17.235,1.235,1.235,0,0,1-.613.815.617.617,0,0,0-.308.479,9.793,9.793,0,0,0-.122,1.643c0,.17,0,.339,0,.509a.544.544,0,0,1-.429.634Zm.085-10.084a2.954,2.954,0,1,0,2.957,2.958A2.965,2.965,0,0,0,186.138,296.121Zm-1.2,6.032a1.16,1.16,0,0,0,.532.562.489.489,0,0,1,.257.3,4.318,4.318,0,0,1,.139.561,11.59,11.59,0,0,1,.1,1.756,2.746,2.746,0,0,0,.005.346.235.235,0,0,0,.091.154c.107.067.23-.021.232-.159,0-.275-.013-.551,0-.824.03-.49.066-.981.123-1.469a.856.856,0,0,1,.485-.747.872.872,0,0,0,.4-.473A3.31,3.31,0,0,1,184.939,302.153Z" transform="translate(0 0)"/>
    <path id="Path_17144" data-name="Path 17144" d="M306.2,486.954a.174.174,0,0,1-.172-.176.172.172,0,0,1,.177-.17.169.169,0,0,1,.166.17A.172.172,0,0,1,306.2,486.954Z" transform="translate(-120.066 -185.966)"/>
    <path id="Path_17145" data-name="Path 17145" d="M224.46,466.354a.172.172,0,0,1-.344.007.177.177,0,0,1,.164-.175A.174.174,0,0,1,224.46,466.354Z" transform="translate(-40.244 -166.065)"/>
    <path id="Path_17146" data-name="Path 17146" d="M210.823,432.408a.177.177,0,0,1-.176.173.179.179,0,0,1-.169-.171.17.17,0,0,1,.166-.17A.168.168,0,0,1,210.823,432.408Z" transform="translate(-26.955 -132.985)"/>
    <path id="Path_17147" data-name="Path 17147" d="M401.795,432.2a.173.173,0,0,1,.172.176.181.181,0,0,1-.174.167.177.177,0,0,1-.171-.179A.168.168,0,0,1,401.795,432.2Z" transform="translate(-213.221 -132.944)"/>
    <path id="Path_17148" data-name="Path 17148" d="M388.147,466.152a.181.181,0,0,1,.174.177.172.172,0,0,1-.172.165.168.168,0,0,1-.173-.163A.175.175,0,0,1,388.147,466.152Z" transform="translate(-199.924 -166.032)"/>
    <path id="Path_17149" data-name="Path 17149" d="M361.055,479.952a.174.174,0,0,1-.173.166.167.167,0,0,1-.172-.165.172.172,0,0,1,.17-.178A.179.179,0,0,1,361.055,479.952Z" transform="translate(-173.353 -179.307)"/>
    <path id="Path_17150" data-name="Path 17150" d="M292.774,514a.168.168,0,0,1-.177.168.172.172,0,0,1-.164-.172.174.174,0,0,1,.173-.174A.17.17,0,0,1,292.774,514Z" transform="translate(-106.818 -212.485)"/>
    <path id="Path_17151" data-name="Path 17151" d="M319.975,514.182a.172.172,0,0,1,.018-.344.173.173,0,0,1,.161.186A.171.171,0,0,1,319.975,514.182Z" transform="translate(-133.501 -212.5)"/>
    <path id="Path_17152" data-name="Path 17152" d="M238.116,446.024a.175.175,0,0,1-.171.168.179.179,0,0,1-.173-.177.172.172,0,0,1,.182-.165A.169.169,0,0,1,238.116,446.024Z" transform="translate(-53.552 -146.248)"/>
    <path id="Path_17153" data-name="Path 17153" d="M374.535,445.839a.173.173,0,0,1,.168.17.179.179,0,0,1-.178.172.174.174,0,0,1-.166-.172A.169.169,0,0,1,374.535,445.839Z" transform="translate(-186.653 -146.237)"/>
    <path id="Path_17154" data-name="Path 17154" d="M333.762,486.8a.176.176,0,0,1-.175.172.172.172,0,0,1-.168-.179.167.167,0,0,1,.168-.166A.173.173,0,0,1,333.762,486.8Z" transform="translate(-146.758 -185.988)"/>
    <path id="Path_17155" data-name="Path 17155" d="M265.389,507.254a.167.167,0,0,1-.163.173.171.171,0,1,1-.014-.342A.168.168,0,0,1,265.389,507.254Z" transform="translate(-80.129 -205.92)"/>
    <path id="Path_17156" data-name="Path 17156" d="M347.439,452.685a.172.172,0,0,1-.164.174.167.167,0,0,1-.179-.167.172.172,0,0,1,.161-.176A.18.18,0,0,1,347.439,452.685Z" transform="translate(-160.087 -152.744)"/>
    <path id="Path_17157" data-name="Path 17157" d="M292.564,459.819a.177.177,0,0,1-.169-.181.17.17,0,0,1,.175-.161.166.166,0,0,1,.168.168A.173.173,0,0,1,292.564,459.819Z" transform="translate(-106.781 -159.527)"/>
    <path id="Path_17158" data-name="Path 17158" d="M320.1,459.639a.177.177,0,0,1-.169.181.173.173,0,0,1-.174-.174.166.166,0,0,1,.168-.168A.171.171,0,0,1,320.1,459.639Z" transform="translate(-133.446 -159.527)"/>
    <path id="Path_17159" data-name="Path 17159" d="M251.728,479.934a.167.167,0,0,1-.168.168.173.173,0,0,1-.177-.162.18.18,0,0,1,.17-.181A.173.173,0,0,1,251.728,479.934Z" transform="translate(-66.816 -179.291)"/>
    <path id="Path_17160" data-name="Path 17160" d="M279.087,486.833a.172.172,0,0,1-.166.171.178.178,0,0,1-.176-.173.174.174,0,0,1,.179-.17A.17.17,0,0,1,279.087,486.833Z" transform="translate(-93.478 -186.018)"/>
    <path id="Path_17161" data-name="Path 17161" d="M347.421,507.273a.173.173,0,0,1-.175.163.171.171,0,0,1,0-.342A.175.175,0,0,1,347.421,507.273Z" transform="translate(-160.068 -205.929)"/>
    <path id="Path_17162" data-name="Path 17162" d="M265.271,452.928a.172.172,0,0,1-.169-.168.176.176,0,0,1,.175-.174.171.171,0,0,1,.168.169A.167.167,0,0,1,265.271,452.928Z" transform="translate(-80.184 -152.813)"/>
  </g>
</svg>
