<svg xmlns="http://www.w3.org/2000/svg" width="23.38" height="23.383" viewBox="0 0 23.38 23.383">
  <path id="Path_8069" data-name="Path 8069" d="M377.654,366.358c1.293,0,2.586,0,3.879,0a1.96,1.96,0,0,1,2.077,2.091q.006,3.925,0,7.85a2.492,2.492,0,0,1-.739,1.808q-5.48,5.492-10.973,10.971a1.942,1.942,0,0,1-2.976-.07q-3.235-3.219-6.456-6.452c-.506-.506-1.016-1.007-1.516-1.518a1.963,1.963,0,0,1,.013-3.043q5.419-5.424,10.843-10.843a2.628,2.628,0,0,1,1.924-.794Q375.692,366.356,377.654,366.358Zm.1,7.772a1.93,1.93,0,1,0-1.912-1.948A1.9,1.9,0,0,0,377.752,374.13Z" transform="translate(-360.234 -366.357)" fill="#fff"/>
</svg>
