<svg id="Group_1123" data-name="Group 1123" xmlns="http://www.w3.org/2000/svg" width="19" height="19.004" viewBox="0 0 19 19.004">
  <g id="Group_1091" data-name="Group 1091">
    <g id="Group_1089" data-name="Group 1089">
      <path id="Path_17115" data-name="Path 17115" d="M54.314,181.674a9.5,9.5,0,1,1,9.5-9.5A9.51,9.51,0,0,1,54.314,181.674Z" transform="translate(-44.814 -162.67)" fill="#e20c17"/>
    </g>
    <g id="Group_1090" data-name="Group 1090" transform="translate(2.305 5.036)">
      <path id="Path_17116" data-name="Path 17116" d="M51.067,172.114a3.578,3.578,0,1,1,2.561-6.079,4.464,4.464,0,1,0,0,5A3.587,3.587,0,0,1,51.067,172.114Z" transform="translate(-45.462 -164.068)" fill="#fff"/>
      <path id="Path_17117" data-name="Path 17117" d="M51.735,168.142l-1.534-.5-.946,1.306,0-1.613-1.534-.5,1.533-.5,0-1.612.949,1.3,1.533-.5-.946,1.305Z" transform="translate(-39.692 -162.375)" fill="#fff"/>
    </g>
  </g>
</svg>
